<?xml version="1.0" encoding="UTF-8"?>
<svg xmlns="http://www.w3.org/2000/svg" xmlns:xlink="http://www.w3.org/1999/xlink" width="285px" height="53px" viewBox="0 0 287 53" version="1.1">
<g id="surface1">
<path style=" stroke:none;fill-rule:nonzero;fill:rgb(0%,0%,0%);fill-opacity:1;" d="M 283.035156 42.503906 L 283.035156 41.710938 L 283.542969 41.710938 C 283.820312 41.710938 284.199219 41.730469 284.199219 42.070312 C 284.199219 42.441406 284.003906 42.503906 283.675781 42.503906 L 283.035156 42.503906 M 283.035156 43.0625 L 283.375 43.0625 L 284.160156 44.449219 L 285.027344 44.449219 L 284.15625 43.007812 C 284.382812 43.019531 284.605469 42.929688 284.761719 42.765625 C 284.917969 42.601562 284.996094 42.375 284.976562 42.148438 C 284.976562 41.394531 284.457031 41.148438 283.574219 41.148438 L 282.300781 41.148438 L 282.300781 44.449219 L 283.035156 44.449219 L 283.035156 43.0625 M 286.738281 42.804688 C 286.789062 41.503906 286.042969 40.300781 284.859375 39.765625 C 283.671875 39.230469 282.28125 39.476562 281.347656 40.378906 C 280.410156 41.28125 280.117188 42.664062 280.601562 43.875 C 281.089844 45.082031 282.261719 45.871094 283.558594 45.871094 C 284.394531 45.914062 285.210938 45.613281 285.8125 45.03125 C 286.414062 44.449219 286.75 43.640625 286.738281 42.804688 M 285.820312 42.804688 C 285.847656 43.421875 285.621094 44.023438 285.195312 44.46875 C 284.765625 44.914062 284.175781 45.167969 283.558594 45.164062 L 283.558594 45.15625 C 282.601562 45.191406 281.71875 44.640625 281.328125 43.761719 C 280.9375 42.886719 281.113281 41.859375 281.78125 41.167969 C 282.445312 40.476562 283.464844 40.257812 284.351562 40.617188 C 285.238281 40.976562 285.820312 41.84375 285.820312 42.804688 Z M 285.820312 42.804688 "/>
<path style=" stroke:none;fill-rule:nonzero;fill:rgb(46.27451%,72.156863%,0%);fill-opacity:1;" d="M 29.808594 15.816406 L 29.808594 11.027344 C 30.273438 10.992188 30.742188 10.96875 31.21875 10.953125 C 44.28125 10.542969 52.847656 22.203125 52.847656 22.203125 C 52.847656 22.203125 43.59375 35.089844 33.671875 35.089844 C 32.359375 35.097656 31.054688 34.890625 29.808594 34.472656 L 29.808594 19.957031 C 34.894531 20.570312 35.917969 22.824219 38.976562 27.929688 L 45.773438 22.183594 C 42.472656 18.191406 37.617188 15.8125 32.445312 15.660156 C 31.5625 15.664062 30.683594 15.714844 29.808594 15.816406 M 29.808594 0 L 29.808594 7.152344 C 30.277344 7.113281 30.75 7.082031 31.21875 7.066406 C 49.382812 6.453125 61.214844 22 61.214844 22 C 61.214844 22 47.625 38.570312 33.464844 38.570312 C 32.238281 38.570312 31.015625 38.460938 29.808594 38.246094 L 29.808594 42.667969 C 30.820312 42.796875 31.835938 42.863281 32.851562 42.863281 C 46.03125 42.863281 55.558594 36.117188 64.789062 28.132812 C 66.316406 29.363281 72.582031 32.351562 73.867188 33.660156 C 65.09375 41.023438 44.648438 46.957031 33.054688 46.957031 C 31.9375 46.957031 30.863281 46.890625 29.808594 46.789062 L 29.808594 53 L 79.894531 53 L 79.894531 0 Z M 29.808594 34.472656 L 29.808594 38.246094 C 17.621094 36.070312 14.238281 23.367188 14.238281 23.367188 C 18.433594 19.164062 23.917969 16.503906 29.808594 15.816406 L 29.808594 19.957031 L 29.789062 19.953125 C 24.691406 19.339844 20.707031 24.117188 20.707031 24.117188 C 20.707031 24.117188 22.9375 32.160156 29.808594 34.472656 M 8.164062 22.816406 C 13.378906 15.980469 21.25 11.691406 29.808594 11.027344 L 29.808594 7.152344 C 13.835938 8.4375 0 22 0 22 C 0 22 7.835938 44.707031 29.808594 46.789062 L 29.808594 42.667969 C 13.683594 40.632812 8.164062 22.816406 8.164062 22.816406 Z M 8.164062 22.816406 "/>
<path style=" stroke:none;fill-rule:nonzero;fill:rgb(0%,0%,0%);fill-opacity:1;" d="M 169.816406 10.082031 L 169.820312 44.734375 L 179.582031 44.734375 L 179.582031 10.082031 Z M 93.015625 10.035156 L 93.015625 44.734375 L 102.863281 44.734375 L 102.863281 18.386719 L 110.496094 18.386719 C 112.535156 18.210938 114.550781 18.914062 116.042969 20.320312 C 117.585938 21.972656 118.214844 24.632812 118.214844 29.496094 L 118.214844 44.734375 L 127.757812 44.734375 L 127.757812 25.5625 C 127.757812 11.878906 119.058594 10.035156 110.546875 10.035156 Z M 185.535156 10.082031 L 185.535156 44.734375 L 201.371094 44.734375 C 209.808594 44.734375 212.5625 43.328125 215.539062 40.175781 C 217.644531 37.960938 219.003906 33.101562 219.003906 27.789062 C 219.195312 23.585938 218.089844 19.421875 215.847656 15.867188 C 212.230469 11.027344 207.019531 10.082031 199.238281 10.082031 Z M 195.222656 17.628906 L 199.417969 17.628906 C 205.507812 17.628906 209.445312 20.367188 209.445312 27.484375 C 209.445312 34.597656 205.507812 37.339844 199.417969 37.339844 L 195.222656 37.339844 Z M 155.742188 10.082031 L 147.59375 37.546875 L 139.785156 10.082031 L 129.246094 10.082031 L 140.394531 44.734375 L 154.46875 44.734375 L 165.707031 10.082031 Z M 223.550781 44.734375 L 233.3125 44.734375 L 233.3125 10.082031 L 223.546875 10.082031 Z M 250.917969 10.09375 L 237.285156 44.722656 L 246.910156 44.722656 L 249.070312 38.601562 L 265.203125 38.601562 L 267.246094 44.722656 L 277.695312 44.722656 L 263.960938 10.089844 Z M 257.253906 16.410156 L 263.167969 32.636719 L 251.15625 32.636719 Z M 257.253906 16.410156 "/>
</g>
</svg>
